<?xml version="1.0" encoding="UTF-8"?> <!-- Creator: CorelDRAW X8 --> <svg xmlns="http://www.w3.org/2000/svg" xmlns:xlink="http://www.w3.org/1999/xlink" xml:space="preserve" width="19.7999mm" height="13.2292mm" style="shape-rendering:geometricPrecision; text-rendering:geometricPrecision; image-rendering:optimizeQuality; fill-rule:evenodd; clip-rule:evenodd" viewBox="0 0 2158 1442"> <defs> <style type="text/css"> <![CDATA[ .str0 {stroke:#FEFEFE;stroke-width:17.306} .fil0 {fill:none} .fil1 {fill:#FEFEFE} ]]> </style> </defs> <g id="Слой_x0020_1"> <metadata id="CorelCorpID_0Corel-Layer"></metadata> <g id="_2617082477856"> <path class="fil0 str0" d="M543 9l1557 0c27,0 49,22 49,49l0 1326c0,27 -22,49 -49,49l-1557 0c-27,0 -49,-22 -49,-49l0 -1326c0,-27 22,-49 49,-49z"></path> <polygon class="fil1" points="667,147 789,147 789,173 696,173 696,216 778,216 778,242 696,242 696,286 790,286 790,311 667,311 "></polygon> <polygon class="fil1" points="853,147 882,147 882,215 960,215 960,147 989,147 989,311 960,311 960,242 882,242 882,311 853,311 "></polygon> <path class="fil1" d="M1055 147l73 0c17,-1 34,5 47,17 9,9 14,22 14,35l0 0c0,28 -16,44 -39,50l45 63 -35 0 -40 -58 -37 0 0 58 -28 0 0 -165zm71 82c21,0 34,-11 34,-28l0 0c0,-18 -13,-28 -35,-28l-42 0 0 56 43 0z"></path> <polygon class="fil1" points="1248,147 1277,147 1277,285 1363,285 1363,311 1248,311 "></polygon> <polygon class="fil1" points="1413,147 1442,147 1442,311 1413,311 "></polygon> <path class="fil1" d="M1493 230l0 -1c0,-11 2,-22 6,-32 4,-11 10,-20 18,-28 8,-8 17,-14 28,-19 10,-4 21,-6 32,-6 12,0 24,2 35,6 12,5 22,11 30,20l-18 21c-6,-6 -14,-11 -22,-14 -8,-4 -16,-6 -25,-6 -31,0 -54,26 -54,58l0 0c0,32 23,59 54,59 21,0 34,-8 48,-22l18 19c-8,10 -18,17 -30,22 -11,5 -24,8 -36,7 -12,0 -23,-2 -33,-6 -10,-4 -19,-10 -27,-18 -8,-8 -14,-17 -18,-28 -4,-10 -6,-21 -6,-32z"></path> <polygon class="fil1" points="1693,147 1722,147 1722,215 1800,215 1800,147 1829,147 1829,311 1800,311 1800,242 1722,242 1722,311 1693,311 "></polygon> <polygon class="fil1" points="724,494 658,394 693,394 739,467 785,394 818,394 753,493 753,558 724,558 "></polygon> <path class="fil1" d="M894 393l27 0 73 165 -31 0 -17 -39 -77 0 -17 39 -30 0 72 -165zm42 100l-28 -66 -29 66 57 0z"></path> <polygon class="fil1" points="1041,394 1068,394 1156,508 1156,394 1184,394 1184,558 1160,558 1069,442 1069,558 1041,558 "></polygon> <path class="fil1" d="M1298 393l27 0 73 165 -31 0 -17 -39 -77 0 -17 39 -30 0 72 -165zm42 100l-28 -66 -29 66 57 0z"></path> <polygon class="fil1" points="1442,394 1470,394 1470,558 1442,558 "></polygon> <path class="fil1" d="M667 640l73 0c17,-1 34,5 47,16 5,5 9,11 11,17 2,6 3,12 3,19l0 0c0,27 -16,44 -39,50l45 62 -35 0 -40 -57 -36 0 0 57 -29 0 0 -164zm71 81c21,0 34,-11 34,-27l0 -1c0,-17 -13,-27 -34,-27l-42 0 0 56 42 -1z"></path> <polygon class="fil1" points="860,640 889,640 889,708 967,708 967,640 996,640 996,804 967,804 967,735 889,735 889,804 860,804 "></polygon> <polygon class="fil1" points="1062,640 1184,640 1184,666 1091,666 1091,708 1173,708 1173,734 1091,734 1091,779 1185,779 1185,804 1062,804 "></polygon> <polygon class="fil1" points="1243,640 1365,640 1365,666 1272,666 1272,708 1354,708 1354,734 1272,734 1272,779 1366,779 1366,804 1243,804 "></polygon> <path class="fil1" d="M661 968l0 0c0,-12 2,-23 6,-33 4,-11 10,-20 18,-28 8,-8 17,-14 28,-18 10,-5 21,-7 33,-7 12,0 23,2 35,6 11,5 21,12 29,20l-18 21c-6,-6 -14,-11 -22,-14 -7,-4 -16,-6 -25,-6 -31,0 -54,26 -54,58l0 0c0,33 23,59 55,59 20,0 33,-8 47,-21l18 18c-8,10 -18,17 -30,22 -11,6 -24,8 -36,8 -12,0 -23,-2 -33,-7 -10,-4 -19,-10 -27,-18 -8,-8 -14,-17 -18,-28 -4,-10 -6,-21 -6,-32z"></path> <polygon class="fil1" points="861,885 890,885 890,954 968,954 968,885 997,885 997,1050 968,1050 968,980 890,980 890,1050 861,1050 "></polygon> <path class="fil1" d="M1112 884l26 0 73 166 -31 0 -17 -40 -77 0 -17 40 -30 0 73 -166zm41 100l-28 -65 -29 65 57 0z"></path> <polygon class="fil1" points="1253,885 1280,885 1368,999 1368,885 1396,885 1396,1050 1372,1050 1281,933 1281,1050 1253,1050 "></polygon> <polygon class="fil1" points="1462,885 1584,885 1584,911 1491,911 1491,954 1574,954 1574,980 1491,980 1491,1024 1585,1024 1585,1050 1462,1050 "></polygon> <polygon class="fil1" points="1686,985 1621,885 1655,885 1701,958 1748,885 1781,885 1715,984 1715,1050 1686,1050 "></polygon> <path class="fil1" d="M700 1224l11 0 32 72 -13 0 -8 -17 -34 0 -7 17 -13 0 32 -72zm18 44l-13 -29 -12 29 25 0z"></path> <path class="fil1" d="M809 1224l32 0c8,0 15,2 21,7 4,4 6,10 6,16 0,5 -1,10 -4,14 -4,4 -8,6 -13,7l20 28 -15 0 -18 -25 -16 0 0 25 -13 0 0 -72zm32 36c9,0 14,-5 14,-12 0,-8 -5,-12 -15,-12l-18 0 0 24 19 0z"></path> <path class="fil1" d="M934 1260c0,-4 1,-9 3,-14 2,-4 4,-9 8,-12 3,-4 7,-6 12,-8 4,-2 9,-3 14,-3 5,0 11,1 16,3 4,2 9,5 13,8l-8 10c-3,-3 -6,-5 -10,-7 -3,-1 -7,-2 -11,-2 -3,0 -6,0 -9,2 -3,1 -6,3 -8,5 -2,3 -4,5 -5,9 -1,3 -2,6 -1,9 -1,3 0,7 1,10 1,3 3,5 5,8 2,2 5,4 8,5 3,2 6,3 9,3 4,0 8,-1 12,-3 3,-1 7,-4 9,-7l8 9c-3,4 -8,7 -13,9 -5,3 -11,4 -16,4 -5,0 -10,-1 -14,-3 -5,-2 -9,-5 -12,-8 -4,-4 -7,-8 -8,-12 -2,-5 -3,-10 -3,-15z"></path> <polygon class="fil1" points="1067,1224 1079,1224 1079,1254 1114,1254 1114,1224 1127,1224 1127,1296 1114,1296 1114,1266 1079,1266 1079,1296 1067,1296 "></polygon> <polygon class="fil1" points="1199,1224 1212,1224 1212,1296 1199,1296 "></polygon> <polygon class="fil1" points="1302,1236 1279,1236 1279,1224 1338,1224 1338,1236 1315,1236 1315,1296 1302,1296 "></polygon> <polygon class="fil1" points="1405,1224 1458,1224 1458,1236 1418,1236 1418,1254 1454,1254 1454,1266 1418,1266 1418,1285 1459,1285 1459,1296 1405,1296 "></polygon> <path class="fil1" d="M1524 1260c0,-4 1,-9 3,-14 2,-4 5,-9 8,-12 3,-4 8,-6 12,-8 5,-2 10,-3 14,-3 6,0 11,1 16,3 5,2 9,5 13,8l-8 10c-6,-6 -13,-9 -21,-9 -3,0 -6,1 -9,2 -3,1 -6,3 -8,6 -2,2 -4,5 -5,8 -1,3 -2,6 -1,9 -1,4 0,7 1,10 1,3 3,6 5,8 2,2 5,4 8,6 3,1 6,2 9,2 4,0 8,-1 12,-3 3,-1 7,-4 9,-6l8 8c-3,4 -8,7 -13,9 -5,3 -10,4 -16,4 -5,0 -10,-1 -14,-3 -5,-2 -9,-5 -12,-8 -4,-4 -6,-8 -8,-12 -2,-5 -3,-10 -3,-15z"></path> <polygon class="fil1" points="1675,1236 1652,1236 1652,1224 1710,1224 1710,1236 1688,1236 1688,1296 1675,1296 "></polygon> <path class="fil1" d="M1771 1286l7 -9c7,6 15,9 23,9 8,0 13,-4 13,-9 0,-5 -3,-8 -16,-11 -16,-4 -24,-8 -24,-21 0,-13 10,-21 24,-21 10,0 19,3 26,9l-6 9c-6,-4 -13,-7 -20,-7 -7,0 -12,4 -12,8 0,6 4,9 17,12 16,3 23,9 23,21 0,13 -10,21 -25,21 -11,0 -22,-4 -30,-11z"></path> <path class="fil1" d="M370 1405l0 -90c0,-71 -42,-112 -114,-112l-136 0c-72,0 -113,41 -113,112l0 90 363 0zm-50 -52l-263 0 0 -38c0,-38 21,-59 64,-59l134 0c43,0 65,21 65,59l0 38zm1 -265l-111 0 0 -115 -49 0 0 115 -105 0 0 -125 -49 0 0 178 363 0 0 -183 -49 0 0 130zm56 -270c0,-68 -46,-106 -100,-106 -113,0 -113,153 -184,153 -26,0 -43,-17 -43,-47 0,-28 17,-46 52,-47l0 -54c-62,2 -102,39 -102,102 0,61 39,99 92,99 108,0 112,-152 184,-152 29,0 50,17 50,52 0,32 -18,52 -56,53l0 53c67,0 107,-42 107,-106zm-370 -153l363 0 0 -52 -363 0 0 52zm369 -221c0,-66 -40,-107 -111,-108l-93 0 0 109 47 0 0 -57 46 0c41,0 60,20 60,55 0,34 -19,55 -63,55l-147 0c-44,0 -64,-20 -64,-53 0,-34 19,-52 61,-54l0 -52c-72,2 -111,41 -111,106 0,66 39,106 113,106l148 0c74,0 114,-42 114,-107zm-369 -325l141 0c33,0 87,-3 123,-8l1 2c-22,9 -56,22 -80,33l-185 84 0 52 363 0 0 -52 -140 0c-34,0 -89,3 -125,7l-1 -2c23,-9 61,-24 88,-35l178 -81 0 -52 -363 0 0 52z"></path> </g> </g> </svg> 