<?xml version="1.0" encoding="UTF-8"?> <!-- Creator: CorelDRAW X8 --> <svg xmlns="http://www.w3.org/2000/svg" xmlns:xlink="http://www.w3.org/1999/xlink" xml:space="preserve" width="124.959mm" height="132.341mm" style="shape-rendering:geometricPrecision; text-rendering:geometricPrecision; image-rendering:optimizeQuality; fill-rule:evenodd; clip-rule:evenodd" viewBox="0 0 12496 13234"> <defs> <style type="text/css"> <![CDATA[ .fil0 {fill:#EBECEC} ]]> </style> </defs> <g id="Слой_x0020_1"> <metadata id="CorelCorpID_0Corel-Layer"></metadata> <g id="_2553892374992"> <path class="fil0" d="M12496 2092l-2092 -2092 -10400 0 -4 13234 10361 0 2135 -2134 0 -3505 -1580 -1579 1580 -1580 0 -2344zm-1037 5933l-1 2677 -1494 1493 0 2 -5228 0 -3695 0 0 -6674 5184 5184 18 -16 3941 -3941 1275 1275 0 0zm0 -4018l-5234 5233 -5184 -5184 0 -3019 8932 -1 1486 1486 0 1485 0 0 0 0z"></path> </g> </g> </svg> 