<?xml version="1.0" encoding="UTF-8"?> <svg xmlns="http://www.w3.org/2000/svg" width="119" height="33" viewBox="0 0 119 33" fill="none"> <path fill-rule="evenodd" clip-rule="evenodd" d="M52.3952 3.2627V13.5149H51.2506V8.78265C51.2506 7.65641 51.2506 6.64237 51.3658 5.62879H51.2506C51.0222 6.4175 50.5643 7.31839 50.2212 8.33244L49.0766 11.1488H47.9324L46.7878 8.33244C46.4447 7.43107 46.101 6.52969 45.7579 5.74147H45.6432C45.7579 6.75551 45.8721 7.76955 45.8721 8.78265V13.5149H44.6133V3.2627H45.8721L47.7035 7.54374C47.9324 8.10709 48.2756 9.12067 48.5045 9.68449H48.6187C48.8472 9.12067 49.1908 8.10709 49.4197 7.54374L51.2506 3.2627H52.3952Z" fill="#3E3E3F"></path> <path fill-rule="evenodd" clip-rule="evenodd" d="M56.8555 13.5139H58.1148V3.26172H56.8555V13.5139Z" fill="#3E3E3F"></path> <path fill-rule="evenodd" clip-rule="evenodd" d="M62.2383 10.5858V6.30472C62.2383 4.2771 63.3829 3.15039 65.2138 3.15039C67.0447 3.15039 68.0751 4.2771 68.1888 6.19252H66.9305C66.9305 4.83999 66.2437 4.2771 65.2138 4.2771C64.1839 4.2771 63.4976 4.95313 63.4976 6.30472V10.5858C63.4976 11.9378 64.1839 12.6138 65.328 12.6138C66.4726 12.6138 67.1594 11.9378 67.1594 10.6984V9.12103H65.2138V7.99479H68.1888V10.5858C68.1888 12.5007 67.0447 13.6279 65.2138 13.6279C63.4976 13.7406 62.2383 12.6138 62.2383 10.5858Z" fill="#3E3E3F"></path> <path fill-rule="evenodd" clip-rule="evenodd" d="M77.9154 3.2627V13.5149H76.6561V8.89532H73.3374V13.5149H72.0781V3.2627H73.3374V7.76955H76.6561V3.2627H77.9154Z" fill="#3E3E3F"></path> <path fill-rule="evenodd" clip-rule="evenodd" d="M87.1845 4.38941H84.8957V13.5149H83.6369V4.38941H81.3477V3.2627H87.0698V4.38941H87.1845Z" fill="#3E3E3F"></path> <path fill-rule="evenodd" clip-rule="evenodd" d="M92.3341 10.0225L89.8164 3.2627H91.0748L92.4488 6.98038C92.6772 7.43107 92.7919 8.10757 93.0204 8.55778C93.2503 7.99442 93.364 7.43107 93.5934 6.98038L94.9665 3.37537H96.1106L93.4787 10.1352V13.6271H92.2194V10.0225H92.3341Z" fill="#3E3E3F"></path> <path fill-rule="evenodd" clip-rule="evenodd" d="M49.1893 26.8086C49.1893 25.5692 48.3883 25.0059 47.2437 25.0059H45.8711V28.6109H47.3584C48.6172 28.4987 49.1893 27.9348 49.1893 26.8086ZM45.8711 20.498V23.8777H47.2437C48.2741 23.8777 48.8461 23.3144 48.8461 22.1876C48.8461 21.0614 48.2741 20.6107 47.2437 20.6107H45.8711V20.498ZM50.4501 26.8075C50.4501 28.6098 49.3055 29.7361 47.4741 29.7361H44.6133V19.4844H47.2452C48.9623 19.4844 49.9923 20.4984 49.9923 22.188C49.9923 23.3147 49.5344 24.1034 48.8476 24.4414C49.8776 24.6673 50.4501 25.5682 50.4501 26.8075Z" fill="#3E3E3F"></path> <path fill-rule="evenodd" clip-rule="evenodd" d="M54.1094 26.5831V19.373H55.3687V26.5831C55.3687 28.0469 56.055 28.7234 57.0849 28.7234C58.1153 28.7234 58.8016 28.0469 58.8016 26.5831V19.373H60.0599V26.5831C60.0599 28.7234 58.9153 29.8496 57.0849 29.8496C55.3687 29.8496 54.1094 28.6112 54.1094 26.5831Z" fill="#3E3E3F"></path> <path fill-rule="evenodd" clip-rule="evenodd" d="M64.2969 29.6247H65.5562V19.373H64.2969V29.6247Z" fill="#3E3E3F"></path> <path fill-rule="evenodd" clip-rule="evenodd" d="M74.8235 28.4985V29.6247H69.9023V19.373H71.1617V28.4985H74.8235Z" fill="#3E3E3F"></path> <path fill-rule="evenodd" clip-rule="evenodd" d="M80.7755 28.4982C82.0348 28.4982 82.7211 27.8222 82.7211 26.4701V22.5276C82.7211 21.1751 82.0348 20.499 80.7755 20.499H79.5162V28.4982H80.7755ZM78.2578 19.373H80.7755C82.7211 19.373 83.9804 20.4993 83.9804 22.5278V26.5835C83.9804 28.4985 82.8353 29.7374 80.7755 29.7374H78.2578V19.373Z" fill="#3E3E3F"></path> <path fill-rule="evenodd" clip-rule="evenodd" d="M88.1016 29.6247H89.2457V19.373H88.1016V29.6247Z" fill="#3E3E3F"></path> <path fill-rule="evenodd" clip-rule="evenodd" d="M99.6576 19.373V29.6247H98.3983L95.8811 24.1043C95.5379 23.3161 95.0801 22.1894 94.8507 21.626C94.9654 22.5278 94.9654 23.8794 94.9654 24.7808V29.6247H93.707V19.373H94.9654L97.5973 25.0061C97.9404 25.6817 98.3983 26.8084 98.6277 27.3718C98.513 26.4704 98.513 25.0061 98.513 24.1043V19.373H99.6576Z" fill="#3E3E3F"></path> <path fill-rule="evenodd" clip-rule="evenodd" d="M103.895 26.6966V22.4151C103.895 20.3875 105.039 19.2617 106.87 19.2617C108.701 19.2617 109.731 20.3875 109.845 22.3029H108.587C108.473 20.9508 107.9 20.3875 106.87 20.3875C105.84 20.3875 105.154 21.064 105.154 22.4151V26.6966C105.154 28.0482 105.84 28.7247 106.985 28.7247C108.129 28.7247 108.816 28.0482 108.816 26.8093V25.2324H106.985V24.1052H109.845V26.6966C109.845 28.6116 108.701 29.7383 106.87 29.7383C105.039 29.8509 103.895 28.7247 103.895 26.6966Z" fill="#3E3E3F"></path> <path fill-rule="evenodd" clip-rule="evenodd" d="M113.164 26.9214H114.423C114.423 28.0476 115.11 28.7236 116.14 28.7236C117.284 28.7236 117.857 28.0476 117.857 27.034C117.857 24.7811 113.393 24.7811 113.393 21.7389C113.393 20.2742 114.537 19.1484 116.14 19.1484C117.857 19.1484 118.886 20.2742 119.001 21.9643H117.742C117.742 20.838 117.055 20.2742 116.14 20.2742C115.11 20.2742 114.537 20.838 114.537 21.7389C114.537 23.8792 119.001 23.8792 119.001 27.034C119.001 28.4987 117.97 29.8499 116.025 29.8499C114.423 29.8499 113.279 28.7236 113.164 26.9214Z" fill="#3E3E3F"></path> <path fill-rule="evenodd" clip-rule="evenodd" d="M16.6538 27.7711L15.7208 28.6192L0 14.7691V33.0001H27.7803L32.0156 29.3254V20.7048V20.3512L28.6418 17.1719L16.6538 27.7711ZM0 10.4582V0H27.7803L32.0156 3.88646V9.82268L15.7928 24.2376H15.6488L0 10.4582Z" fill="#3E3E3F"></path> </svg> 